<?xml version="1.0" encoding="utf-8"?>
<!-- Generator: Adobe Illustrator 25.4.1, SVG Export Plug-In . SVG Version: 6.00 Build 0)  -->
<svg version="1.1" id="Capa_1" xmlns="http://www.w3.org/2000/svg" xmlns:xlink="http://www.w3.org/1999/xlink" x="0px" y="0px"
	 viewBox="0 0 300 300" style="enable-background:new 0 0 300 300;" xml:space="preserve">
<style type="text/css">
	.st0{fill:#FDFDFD;}
	.st1{fill:#040303;}
	.st2{fill:#FFB69F;}
	.st3{fill:#13BF6D;}
	.st4{fill:#F2BF22;}
	.st5{fill:#FC5D3D;}
	.st6{fill:#72C2E9;}
	.st7{fill:#716F6E;}
	.st8{fill:#FBB2A3;}
	.st9{fill:#666362;}
	.st10{fill:#FDC5B5;}
</style>
<path class="st0" d="M0,153.8C0,102.53,0,51.27,0,0c100,0,200,0,300,0c0,100,0,200,0,300c-100,0-200,0-300,0c0-46,0-92.01,0-138.01
	c0.39,0.73,0.86,1.43,1.16,2.19c1.49,3.74,3.7,7.19,7.4,8.68c4.67,1.89,5.92,5.29,6.02,9.7c0.01,0.29,0.05,0.58,0.07,0.87
	c0.78,12.87,6.88,21.92,18.5,27.87c11.84,6.06,23.24,12.98,34.79,19.6c0.88,0.5,2.01,1.53,2.06,2.37c0.21,4.05,0.1,8.12,0.1,12.09
	c-6.52,2.13-8.76,5.16-8.79,11.64c-0.02,4.29-0.06,8.57,0.01,12.86c0.1,6.09,4.25,10.32,10.3,10.32c52.02,0.03,104.04,0.03,156.06,0
	c6.2,0,10.34-4.23,10.44-10.49c0.06-3.99,0.01-7.99,0.01-11.98c0-7.23-1.92-9.96-8.8-12.41c0-3.45,0.1-6.95-0.04-10.45
	c-0.07-1.95,0.45-3.08,2.3-4.1c12.91-7.17,25.74-14.48,38.57-21.79c6.76-3.85,11.21-9.57,13.16-17.08c0.8-3.09,1.26-6.31,1.48-9.5
	c0.3-4.31,1.69-7.15,5.92-9.49c11.03-6.1,11.71-21.44,1.65-28.93c-1.65-1.22-1.86-2.39-1.58-4.14c0.79-5,1.56-10,2.18-15.02
	c0.44-3.56-0.35-4.66-3.64-5.88c0.45-3.8,0.91-7.59,1.36-11.39c3.9-0.37,4.96-1.23,5.54-5.04c0.8-5.19,1.55-10.4,2.1-15.62
	c0.2-1.89,0.02-3.93-0.48-5.77c-1.89-7.08-8.27-11.85-15.52-11.87c-7.24-0.02-13.54,4.81-15.65,12.17
	c-5.66,19.8-11.27,39.61-16.91,59.42c-0.18,0.62-0.47,1.21-0.71,1.81c-0.36-7.46-0.39-14.77-0.34-22.08c0.04-5.8-1.43-11.13-4.62-16
	c-0.67-1.03-1.08-2.27-1.39-3.48c-4.14-16.19-8.13-32.42-12.38-48.58c-3.13-11.91-13.34-19.84-25.06-19.89
	c-11.62-0.05-21.69,7.7-25.14,19.42c-0.85,2.89-1.58,5.81-2.36,8.72c-2.43,9.06-4.86,18.12-7.33,27.32
	c-13.52-13.63-22.08-15.08-35.65-6.54c-3.62-1.77-6.86-3.84-10.4-4.96c-3.63-1.15-7.56-1.36-11.59-2.03
	c0.03-4.44-0.52-8.94,2.51-13.34c3.39-4.93,4.61-10.86,4.87-16.89c0.16-3.78-1.05-5.21-4.91-5.8c-0.75-3.93-2.24-7.4-5.98-9.44
	c1.04-3.53,0.52-5.58-2.06-6.68c-11.74-5-28.94-1.11-32.43,15.28c-1.86,8.7-0.09,17.02,4.68,24.3c2.82,4.31,2.37,8.51,2.36,13.08
	c-0.72,0-1.21,0.01-1.69,0c-18.29-0.38-30.14,14.34-29.48,29.9c0.5,11.76,0.06,23.57,0.04,35.35c0,0.77,0,1.54,0,2.32
	c-2.48-6.59-4.36-13.2-6.25-19.8c-1.18-4.15-2.06-4.8-6.38-4.69c-0.85-3.59-1.71-7.19-2.56-10.78c2.44-1.1,3.68-2.98,2.96-5.61
	c-2.03-7.39-3.86-14.86-6.42-22.06c-4.04-11.32-18.85-13.97-26.97-5.1C0.9,79.15,0.5,84.56,1.38,90.4
	c2.51,16.72,4.9,33.46,7.29,50.19c0.11,0.77,0.02,2.07-0.44,2.34C4,145.46,2.07,149.67,0,153.8z"/>
<path class="st1" d="M115.28,38.5c3.86,0.59,5.07,2.02,4.91,5.8c-0.26,6.03-1.48,11.97-4.87,16.89c-3.03,4.41-2.49,8.91-2.51,13.34
	c4.03,0.66,7.96,0.88,11.59,2.03c3.54,1.12,6.78,3.19,10.4,4.96c13.57-8.54,22.13-7.1,35.65,6.54c2.47-9.2,4.9-18.26,7.33-27.32
	c0.78-2.91,1.51-5.83,2.36-8.72c3.45-11.72,13.51-19.47,25.14-19.42c11.72,0.05,21.93,7.99,25.06,19.89
	c4.25,16.16,8.24,32.39,12.38,48.58c0.31,1.2,0.72,2.45,1.39,3.48c3.19,4.87,4.66,10.2,4.62,16c-0.05,7.31-0.01,14.61,0.34,22.08
	c0.24-0.6,0.54-1.19,0.71-1.81c5.64-19.8,11.25-39.62,16.91-59.42c2.1-7.36,8.4-12.19,15.65-12.17c7.26,0.02,13.63,4.79,15.52,11.87
	c0.49,1.84,0.67,3.87,0.48,5.77c-0.55,5.22-1.3,10.43-2.1,15.62c-0.58,3.81-1.64,4.67-5.54,5.04c-2.66-1.34-3.72-3.28-3.15-6.4
	c0.89-4.88,1.5-9.81,2.04-14.74c0.37-3.38-0.77-6.12-4.2-7.48c-5.01-2.02-8.9,0.07-10.5,5.7c-5.94,20.95-11.88,41.9-17.8,62.86
	c-0.19,0.66-0.26,1.36-0.39,2.11c8.42-3.46,16.56-6.8,25.42-10.44c0.23-2,0.59-5.07,0.95-8.14c0.4-2.35,0.83-4.69,1.18-7.04
	c0.51-3.48,1.53-4.53,5.1-5.03c3.29,1.22,4.08,2.33,3.64,5.88c-0.62,5.02-1.39,10.02-2.18,15.02c-0.28,1.76-0.07,2.92,1.58,4.14
	c10.06,7.48,9.37,22.83-1.65,28.93c-4.23,2.34-5.62,5.18-5.92,9.49c-0.22,3.19-0.68,6.41-1.48,9.5c-1.95,7.51-6.4,13.23-13.16,17.08
	c-12.84,7.3-25.66,14.62-38.57,21.79c-1.85,1.03-2.37,2.15-2.3,4.1c0.13,3.5,0.04,7,0.04,10.45c6.88,2.45,8.79,5.18,8.8,12.41
	c0,3.99,0.05,7.99-0.01,11.98c-0.09,6.26-4.24,10.49-10.44,10.49c-52.02,0.02-104.04,0.03-156.06,0c-6.05,0-10.2-4.23-10.3-10.32
	c-0.07-4.29-0.03-8.57-0.01-12.86c0.03-6.48,2.27-9.51,8.79-11.64c0-3.97,0.12-8.04-0.1-12.09c-0.04-0.84-1.18-1.87-2.06-2.37
	c-11.55-6.61-22.95-13.53-34.79-19.6c-11.62-5.95-17.72-15.01-18.5-27.87c-0.02-0.29-0.06-0.58-0.07-0.87
	c-0.1-4.41-1.35-7.81-6.02-9.7c-3.69-1.49-5.9-4.94-7.4-8.68c-0.3-0.76-0.77-1.46-1.16-2.19c0-2.73,0-5.46,0-8.19
	c2.07-4.13,4-8.34,8.24-10.87c0.46-0.27,0.55-1.57,0.44-2.34C6.29,123.85,3.9,107.11,1.38,90.4C0.5,84.56,0.9,79.15,5.1,74.57
	c8.12-8.87,22.93-6.23,26.97,5.1c2.57,7.2,4.39,14.68,6.42,22.06c0.72,2.63-0.52,4.5-2.96,5.61c-3.56,0.07-4.75-0.74-5.71-4.06
	c-1.8-6.25-3.54-12.51-5.32-18.76c-0.71-2.49-1.72-4.76-4.47-5.65c-5.51-2.13-10.47,1.25-10.26,7.02c0.05,1.26,0.23,2.52,0.41,3.77
	c1.09,7.61,2.19,15.22,3.3,22.83c1.34,9.23,2.68,18.45,3.88,26.68c8.82,3.61,17.01,6.97,25.7,10.53c-1.16-3.75-2.21-7.14-3.26-10.52
	c-1.28-4.76-2.48-9.54-3.89-14.26c-0.85-2.87-0.38-5.12,2.17-6.81c4.32-0.11,5.2,0.54,6.38,4.69c1.88,6.61,3.77,13.22,6.25,19.8
	c0-0.77,0-1.54,0-2.32c0.02-11.79,0.46-23.59-0.04-35.35c-0.66-15.56,11.2-30.28,29.48-29.9c0.48,0.01,0.96,0,1.69,0
	c0.01-4.57,0.46-8.77-2.36-13.08c-4.77-7.28-6.53-15.59-4.68-24.3c3.5-16.4,20.69-20.29,32.43-15.28c2.58,1.1,3.1,3.15,2.06,6.68
	c-2.03,1.79-4.13,1.82-6.71,0.96c-9.56-3.18-18.61,1.82-19.48,10.73c-0.79,8.07,1.65,15.23,7.06,21.25
	c4.59,5.1,9.37,5.05,13.97-0.02c4.62-5.09,7.02-11.17,7.28-18.03C111.52,41.16,112.53,39.29,115.28,38.5z M178.43,94.23
	c3.6-0.6,7.19-1.2,11.23-1.88c-0.14-2.23,0.37-4.93-0.59-6.89c-1.58-3.22-4.12-5.98-6.49-9.27c-1.48,6.12-2.9,11.99-4.32,17.86
	c-0.06,0.12-0.13,0.25-0.19,0.37C178.19,94.36,178.31,94.3,178.43,94.23z M181.29,271.3c15.17,0.03,30.33,0.05,45.5,0.12
	c1.91,0.01,2.57-0.76,2.54-2.61c-0.08-3.99-0.08-7.97,0-11.96c0.04-1.86-0.66-2.62-2.55-2.61c-15.17,0.07-30.33,0.09-45.5,0.12
	c-5.23-0.03-10.47-0.01-15.7-0.11c-1.83-0.03-2.65,0.55-2.61,2.49c0.09,4.07,0.06,8.14,0.01,12.21c-0.02,1.66,0.49,2.5,2.32,2.46
	C170.63,271.31,175.96,271.33,181.29,271.3z M88.31,271.29c15.27,0.03,30.54,0.05,45.81,0.12c1.83,0.01,2.36-0.81,2.33-2.47
	c-0.05-3.89-0.11-7.78,0.02-11.67c0.08-2.25-0.64-3.12-2.98-3.06c-5.54,0.14-11.09,0.05-16.63,0.04c-4.24-0.01-5.5-1.04-6.37-5.17
	c1.12-2.82,3.22-3.85,6.21-3.71c3.57,0.16,7.16,0.04,10.6,0.04c0-13.53,1.01-26.85-0.27-39.94c-1.47-15.04-13.87-26.18-28.73-28.45
	c-7.77-1.19-15.77-1.72-23.19-4.07c-9.4-2.98-18.32-7.46-27.41-11.38c-8.74-3.77-17.41-7.69-26.15-11.46
	c-5.6-2.41-11.28,0.33-12.59,5.94c-0.92,3.95,0.98,7.72,5.24,10.05c12.78,7.01,25.56,14.02,38.41,20.9c2.79,1.5,4.16,3.37,3.46,6.54
	c-2.62,2.96-3.96,3.19-7.55,1.26c-3.32-1.79-6.64-3.59-9.95-5.39c-4.98-2.71-9.96-5.43-15.48-8.43c0.52,2.84,0.93,5.09,1.35,7.35
	c0.88,6.31,4.64,10.47,9.98,13.49c13.43,7.58,26.87,15.13,40.25,22.79c1.53,0.87,2.7,2.35,4.04,3.55c0,5.66,0,11.32,0,17.06
	c3.51,0,6.56,0,9.62,0c1.82,0.06,3.64,0.19,5.46,0.17c2.63-0.03,4.44,1,5.15,3.64c-0.32,3.81-1.7,5.14-5.43,5.21
	c-1.74,0.04-3.47,0.07-5.21,0.1c-5.26-0.03-10.52-0.03-15.78-0.1c-1.74-0.02-2.45,0.7-2.42,2.45c0.06,4.09,0.06,8.19,0,12.28
	c-0.03,1.75,0.69,2.45,2.43,2.42C77.79,271.33,83.05,271.33,88.31,271.29z M274.96,188.33c0.41-2.25,0.83-4.51,1.33-7.25
	c-1.4,0.72-2.33,1.17-3.23,1.67c-7.4,4.02-14.78,8.06-22.18,12.06c-3.6,1.95-4.92,1.71-7.55-1.27c-0.69-3.15,0.66-5.02,3.46-6.52
	c12.67-6.77,25.29-13.66,37.84-20.66c1.87-1.04,3.69-2.62,4.85-4.39c2.08-3.18,1.38-7.19-1.17-9.96c-2.65-2.88-6.44-3.66-10.41-1.92
	c-12.89,5.64-25.85,11.14-38.6,17.08c-11.5,5.36-23.33,8.93-36.06,9.6c-7.79,0.41-14.71,3.34-20.27,9.03
	c-6.81,6.11-10.85,13.73-11.12,22.86c-0.36,11.83-0.16,23.68-0.18,35.53c0,0.36,0.19,0.72,0.28,1.05c3.2,0,6.28,0,9.37,0
	c12.86,0.04,25.71,0.09,38.57,0.12c0.16,0,0.32-0.2,0.66-0.41c0-4.36,0.16-8.85-0.05-13.31c-0.16-3.35,1.12-5.38,4.05-7.01
	c13.61-7.54,27.13-15.24,40.67-22.92C270.45,198.72,274.11,194.54,274.96,188.33z M128.81,88.85c-4.13-3.73-8.8-4.92-13.92-5.08
	c-1.94-0.06-2.85,0.53-3.67,2.34c-2.61,5.75-7.32,8.84-13.57,8.99c-6.14,0.14-11.15-2.61-13.73-8.19c-1.4-3.04-3.18-3.38-5.84-3.02
	c-0.87,0.12-1.75,0.17-2.61,0.3c-10.07,1.46-17.56,11.76-15.49,21.55c1.68,0,3.43,0.12,5.16-0.02c12.32-0.96,15.22,5.24,14.94,15.03
	c-0.39,13.82-0.05,27.66-0.16,41.49c-0.02,2.4,0.38,3.67,3.12,4c8.18,0.98,16.32,2.25,24.65,3.43c0-4.63-0.02-9.49,0-14.35
	c0.03-6.53,1.95-12.41,5.83-17.7c0.68-0.92,1.08-2.26,1.11-3.41c0.11-5.94,0-11.88,0.07-17.82c0.05-5.16,3.17-9.28,7.8-10.37
	c1.2-0.29,2.47-0.31,3.95-0.48C125.37,99.7,126.04,94.2,128.81,88.85z M191.6,170c3.1-0.62,5.74-1.25,8.42-1.66
	c6.24-0.96,12.49-1.85,18.75-2.69c2.03-0.27,2.68-1.2,2.64-3.28c-0.14-6.32-0.04-12.65-0.05-18.98c-0.02-8.97,3.66-15.94,11.2-20.85
	c1.96-1.27,3.96-2.5,5.74-3.99c0.69-0.58,1.3-1.94,1.12-2.77c-1.67-8.05-9.18-14.06-17.38-14.21c-1.44-0.03-2.19,0.3-2.83,1.75
	c-2.68,6.11-7.5,9.45-14.15,9.44c-6.65-0.01-11.46-3.37-14.12-9.48c-0.65-1.51-1.44-1.74-2.85-1.7c-7.44,0.19-12.96,3.55-16.74,9.92
	c-1.68,2.84-3.19,5.86-5.32,8.33c-1.92,2.23-2,4.37-1.56,6.86c17.32,1.99,27.11,13.01,27.12,30.37
	C191.6,161.32,191.6,165.59,191.6,170z M135.4,135.79c-10.1-0.5-19.32,8.92-18.66,19.2c1.81,0,3.64-0.02,5.47,0
	c6.79,0.07,11.16,4.36,11.2,11.13c0.05,7.79,0.01,15.58,0.01,23.38c0,1.03,0,2.06,0,3.17c10.98,0,21.54,0,32.43,0
	c0-1.22,0-2.26,0-3.31c0-7.79-0.07-15.59,0.03-23.38c0.08-6.64,4.44-10.89,11.05-10.98c1.89-0.03,3.78,0,5.65,0
	c0.01-10.85-8.79-19.72-18.67-19.19c-2.42,6.75-6.97,11.01-14.44,10.93C142.17,146.65,137.7,142.43,135.4,135.79z M163.21,201.77
	c-8.88,0-18.16,0-26.9,0c0,14.59,0,29.02,0,43.42c9.21,0,17.8,0,26.9,0C163.21,230.61,163.21,216.26,163.21,201.77z M164.43,101.77
	c0.06-9.18-5.76-15.85-13.26-16.45c-8.31-0.67-15.05,4.68-16.27,12.93c-1.04,7.02,3.42,16.46,9.5,20.11
	c3.85,2.31,7.67,2.17,11.41-0.73C161.39,113.32,164,107.43,164.43,101.77z M59.48,114.52c0,13.96-0.01,27.48,0.03,41.01
	c0,0.67,0.31,1.71,0.78,1.94c3.46,1.66,7,3.15,10.91,4.87c0-8.94,0-17.38,0-25.82c0-6.33,0-12.65,0.01-18.98
	c0-1.51,0.06-3.03-2.13-3.02C65.98,114.53,62.89,114.52,59.48,114.52z M188.41,65.09c1.83,7.34,4.82,13.39,10.93,17.13
	c2.13,1.31,5.24,1.99,7.69,1.61c6.8-1.05,14.61-11.54,14.39-18.73c-5.41,0.32-10.35-1.01-14.79-4.25c-0.66-0.48-2.26-0.48-2.92,0
	C199.28,64.06,194.35,65.45,188.41,65.09z M188.45,55.99c4.05,0.58,6.3,0.31,8.84-1.55c5.23-3.84,10.35-3.89,15.6-0.08
	c2.73,1.98,5.81,2.36,9.09,1.63c-1.72-9.08-8.88-14.84-17.86-14.53C196.5,41.71,189.42,48.22,188.45,55.99z M230.33,161.01
	c8.84-2.1,9.6-3.02,9.6-11.33c0-2.53,0-5.06,0-7.58c0-4.43,0-8.86,0-13.7c-5.28,2.79-9.19,6.25-9.51,12.02
	C230.04,147.19,230.33,154,230.33,161.01z M90.72,73.95c0,1.79-0.1,3.83,0.02,5.86c0.22,3.75,3.05,6.53,6.53,6.58
	c3.45,0.05,6.38-2.69,6.67-6.44c0.16-2.18,0.03-4.39,0.03-6C99.51,73.95,95.32,73.95,90.72,73.95z M154.08,254.43
	c-2.91,0-5.84,0-8.68,0c0,5.73,0,11.24,0,16.78c2.98,0,5.85,0,8.68,0C154.08,265.57,154.08,260.11,154.08,254.43z M211.55,92.47
	c-4.42,0-8.68,0-12.96,0c-1.04,8.68,2.09,11.27,6.48,11.49C209.98,104.2,212.03,100.32,211.55,92.47z M135.21,126.31
	c-0.18-1.43,0.02-3.3-0.7-4.71c-1.12-2.22-2.56-4.5-4.45-6.02c-1.23-0.99-3.51-0.91-5.31-0.84c-0.47,0.02-1.21,1.76-1.24,2.73
	c-0.14,3.87-0.06,7.74-0.06,11.64C127.27,128.21,130.91,127.34,135.21,126.31z M174.67,180.88c2.63-2.09,4.99-3.92,7.3-5.83
	c0.4-0.33,0.79-0.93,0.8-1.41c0.07-3.25,0.04-6.51,0.04-9.87c-2.27,0-4.13-0.18-5.94,0.08c-0.8,0.12-2.08,1.12-2.1,1.76
	C174.59,170.62,174.67,175.64,174.67,180.88z M227.4,76.55c-1.72,2.53-2.78,4.87-4.52,6.46c-3.11,2.86-2.51,6.16-2.21,9.5
	c3.72,0.53,7.21,1.03,11.16,1.59C230.34,88.15,228.92,82.54,227.4,76.55z M124.65,180.79c0-5.16,0.08-9.99-0.08-14.8
	c-0.02-0.75-1.06-2-1.76-2.09c-2.04-0.28-4.15-0.1-6.34-0.1c0,3.32-0.09,6.22,0.06,9.11c0.04,0.81,0.58,1.81,1.2,2.35
	C119.83,177.08,122.07,178.75,124.65,180.79z M143.92,128.37c-0.06,3.16-0.86,6.96,2.94,8.74c1.62,0.76,4.32,0.63,5.91-0.23
	c3.47-1.89,2.79-5.5,2.59-8.51C151.54,128.37,147.9,128.37,143.92,128.37z"/>
<path class="st2" d="M115.28,38.5c-2.74,0.78-3.76,2.66-3.87,5.45c-0.25,6.85-2.66,12.94-7.28,18.03c-4.6,5.07-9.39,5.12-13.97,0.02
	c-5.41-6.01-7.85-13.18-7.06-21.25c0.88-8.91,9.93-13.91,19.48-10.73c2.58,0.86,4.68,0.83,6.71-0.96
	C113.04,31.1,114.53,34.57,115.28,38.5z"/>
<path class="st2" d="M38.09,118.11c-2.55,1.69-3.03,3.94-2.17,6.81c1.4,4.72,2.6,9.5,3.89,14.26c-3.56-1.54-7.19-2.94-10.64-4.7
	c-1.34-0.68-3.06-2.04-3.26-3.3c-1.24-7.91-2.09-15.88-3.09-23.83c-0.92-7.28-1.92-14.54-2.75-21.83c-0.25-2.19-0.03-4.44-0.03-6.66
	c2.75,0.89,3.76,3.16,4.47,5.65c1.78,6.25,3.52,12.51,5.32,18.76c0.95,3.32,2.14,4.13,5.71,4.06
	C36.38,110.93,37.23,114.52,38.09,118.11z"/>
<path class="st2" d="M285.39,78.91c3.42,1.36,4.57,4.1,4.2,7.48c-0.54,4.93-1.14,9.87-2.04,14.74c-0.57,3.11,0.49,5.06,3.15,6.4
	c-0.45,3.8-0.91,7.59-1.36,11.39c-3.56,0.51-4.59,1.55-5.1,5.03c-0.35,2.36-0.78,4.7-1.18,7.04c-2.19,0.37-4.37,0.81-6.56,1.1
	c-1.49,0.2-3,0.19-4.5,0.27c-0.07-1.57-0.53-3.25-0.14-4.69C276.29,111.4,280.86,95.16,285.39,78.91z"/>
<path class="st2" d="M78.72,228.17c-1.34-1.2-2.51-2.68-4.04-3.55c-13.38-7.66-26.82-15.22-40.25-22.79
	c-5.34-3.01-9.1-7.18-9.98-13.49c3.02,1.52,6.06,2.97,9.04,4.56c5.9,3.15,11.71,6.45,17.65,9.52c2.69,1.39,5.73-0.02,6.96-2.84
	c1.11-2.57,0.36-4.82-2.02-6.02c0.7-3.16-0.67-5.04-3.46-6.54c-12.85-6.88-25.62-13.9-38.41-20.9c-4.25-2.33-6.16-6.1-5.24-10.05
	c1.31-5.6,6.99-8.35,12.59-5.94c8.74,3.76,17.41,7.69,26.15,11.46c9.09,3.92,18.02,8.4,27.41,11.38c7.42,2.35,15.42,2.89,23.19,4.07
	c14.86,2.27,27.26,13.41,28.73,28.45c1.28,13.09,0.27,26.41,0.27,39.94c-3.44,0-7.03,0.13-10.6-0.04c-3-0.14-5.09,0.89-6.21,3.71
	c-3.85-0.01-7.7-0.03-11.55-0.04c-0.71-2.64-2.52-3.67-5.15-3.64c-1.82,0.02-3.64-0.11-5.46-0.17c-0.01-3.67-0.01-7.35-0.04-11.02
	c-0.02-2.87-1.54-4.81-4.17-5.58C82.43,228.13,80.53,228.3,78.72,228.17z"/>
<path class="st2" d="M182.97,185.79c5.56-5.69,12.48-8.62,20.27-9.03c12.74-0.67,24.57-4.24,36.06-9.6
	c12.75-5.94,25.71-11.44,38.6-17.08c3.97-1.74,7.76-0.96,10.41,1.92c2.55,2.77,3.26,6.78,1.17,9.96c-1.16,1.77-2.98,3.35-4.85,4.39
	c-12.55,7-25.17,13.89-37.84,20.66c-2.81,1.5-4.15,3.36-3.46,6.52c-2.56,2-3.14,4.36-1.66,6.73c1.61,2.58,4.25,3.39,7.07,1.95
	c3.63-1.86,7.16-3.92,10.76-5.83c5.13-2.72,10.3-5.37,15.45-8.05c-0.85,6.21-4.51,10.39-9.76,13.37
	c-13.53,7.68-27.06,15.37-40.67,22.92c-2.93,1.62-4.2,3.66-4.05,7.01c0.21,4.47,0.05,8.95,0.05,13.31
	c-0.33,0.22-0.49,0.41-0.66,0.41c-12.86-0.03-25.71-0.07-38.57-0.12c-0.01-1.16-0.07-2.33-0.03-3.49
	C181.98,223.09,179.64,204.36,182.97,185.79z"/>
<path class="st3" d="M128.81,88.85c-2.77,5.34-3.44,10.85-2.37,16.68c-1.47,0.17-2.74,0.19-3.95,0.48c-4.63,1.1-7.74,5.21-7.8,10.37
	c-0.06,5.94,0.04,11.88-0.07,17.82c-0.02,1.15-0.43,2.49-1.11,3.41c-3.88,5.29-5.8,11.18-5.83,17.7c-0.02,4.86,0,9.72,0,14.35
	c-8.32-1.18-16.47-2.44-24.65-3.43c-2.74-0.33-3.14-1.6-3.12-4c0.1-13.83-0.24-27.67,0.16-41.49c0.28-9.79-2.62-15.99-14.94-15.03
	c-1.73,0.13-3.47,0.02-5.16,0.02c-2.07-9.79,5.42-20.09,15.49-21.55c0.87-0.13,1.74-0.18,2.61-0.3c2.65-0.36,4.44-0.02,5.84,3.02
	c2.58,5.59,7.59,8.33,13.73,8.19c6.25-0.15,10.96-3.23,13.57-8.99c0.82-1.81,1.73-2.4,3.67-2.34
	C120,83.94,124.68,85.13,128.81,88.85z"/>
<path class="st4" d="M191.6,170c0-4.41,0-8.68,0-12.95c-0.01-17.36-9.8-28.38-27.12-30.37c-0.44-2.49-0.36-4.63,1.56-6.86
	c2.13-2.47,3.64-5.49,5.32-8.33c3.78-6.37,9.3-9.73,16.74-9.92c1.4-0.04,2.19,0.2,2.85,1.7c2.65,6.11,7.46,9.47,14.12,9.48
	c6.65,0.01,11.47-3.33,14.15-9.44c0.64-1.46,1.4-1.78,2.83-1.75c8.2,0.14,15.7,6.16,17.38,14.21c0.17,0.83-0.43,2.19-1.12,2.77
	c-1.78,1.49-3.79,2.72-5.74,3.99c-7.55,4.91-11.22,11.88-11.2,20.85c0.01,6.33-0.09,12.66,0.05,18.98c0.05,2.08-0.6,3.01-2.64,3.28
	c-6.26,0.84-12.51,1.73-18.75,2.69C197.34,168.76,194.69,169.38,191.6,170z"/>
<path class="st5" d="M135.4,135.79c2.3,6.64,6.78,10.86,14.08,10.93c7.47,0.08,12.02-4.18,14.44-10.93
	c9.88-0.53,18.68,8.34,18.67,19.19c-1.87,0-3.76-0.02-5.65,0c-6.61,0.09-10.97,4.34-11.05,10.98c-0.09,7.79-0.02,15.58-0.03,23.38
	c0,1.05,0,2.09,0,3.31c-10.9,0-21.46,0-32.43,0c0-1.11,0-2.14,0-3.17c0-7.79,0.04-15.59-0.01-23.38
	c-0.05-6.77-4.41-11.06-11.2-11.13c-1.83-0.02-3.67,0-5.47,0C116.08,144.71,125.3,135.29,135.4,135.79z"/>
<path class="st6" d="M163.21,201.77c0,14.49,0,28.84,0,43.42c-9.1,0-17.69,0-26.9,0c0-14.4,0-28.83,0-43.42
	C145.05,201.77,154.33,201.77,163.21,201.77z"/>
<path class="st7" d="M98.95,249.05c3.85,0.01,7.7,0.03,11.55,0.04c0.87,4.13,2.12,5.16,6.37,5.17c5.54,0.01,11.09,0.1,16.63-0.04
	c2.34-0.06,3.06,0.81,2.98,3.06c-0.14,3.89-0.08,7.78-0.02,11.67c0.02,1.67-0.5,2.48-2.33,2.47c-15.27-0.08-30.54-0.09-45.81-0.12
	c0-5.64-0.01-11.29-0.01-16.93c1.74-0.03,3.48-0.07,5.21-0.1C97.25,254.18,98.63,252.86,98.95,249.05z"/>
<path class="st7" d="M181.28,254.36c15.17-0.03,30.33-0.05,45.5-0.12c1.89-0.01,2.59,0.75,2.55,2.61c-0.08,3.99-0.08,7.97,0,11.96
	c0.04,1.85-0.62,2.61-2.54,2.61c-15.17-0.08-30.33-0.09-45.5-0.12C181.29,265.65,181.29,260.01,181.28,254.36z"/>
<path class="st2" d="M164.43,101.77c-0.43,5.66-3.04,11.55-8.61,15.86c-3.74,2.9-7.56,3.04-11.41,0.73
	c-6.08-3.65-10.54-13.08-9.5-20.11c1.22-8.25,7.96-13.61,16.27-12.93C158.67,85.93,164.5,92.59,164.43,101.77z"/>
<path class="st2" d="M285.39,78.91c-4.53,16.25-9.1,32.49-13.54,48.77c-0.39,1.44,0.07,3.12,0.14,4.69c1.5-0.08,3.01-0.08,4.5-0.27
	c2.2-0.29,4.38-0.73,6.56-1.1c-0.36,3.07-0.71,6.14-0.95,8.14c-8.86,3.64-16.99,6.98-25.42,10.44c0.14-0.75,0.21-1.45,0.39-2.11
	c5.92-20.95,11.86-41.91,17.8-62.86C276.49,78.98,280.38,76.89,285.39,78.91z"/>
<path class="st8" d="M20.03,78.86c0,2.22-0.22,4.46,0.03,6.66c0.83,7.29,1.83,14.55,2.75,21.83c1,7.95,1.85,15.92,3.09,23.83
	c0.2,1.26,1.92,2.62,3.26,3.3c3.45,1.76,7.08,3.16,10.64,4.7c1.05,3.39,2.1,6.78,3.26,10.52c-8.69-3.56-16.88-6.92-25.7-10.53
	c-1.2-8.23-2.54-17.45-3.88-26.68c-1.1-7.61-2.21-15.22-3.3-22.83c-0.18-1.25-0.36-2.51-0.41-3.77
	C9.56,80.12,14.52,76.74,20.03,78.86z"/>
<path class="st2" d="M59.48,114.52c3.41,0,6.5,0.02,9.6-0.01c2.19-0.02,2.13,1.51,2.13,3.02c0,6.33,0,12.65-0.01,18.98
	c0,8.44,0,16.87,0,25.82c-3.91-1.72-7.45-3.21-10.91-4.87c-0.47-0.23-0.78-1.27-0.78-1.94C59.46,142,59.48,128.47,59.48,114.52z"/>
<path class="st2" d="M182.97,185.79c-3.33,18.57-0.99,37.3-1.68,55.95c-0.04,1.16,0.02,2.33,0.03,3.49c-3.09,0-6.17,0-9.37,0
	c-0.09-0.33-0.28-0.69-0.28-1.05c0.02-11.84-0.18-23.69,0.18-35.53C172.13,199.52,176.16,191.9,182.97,185.79z"/>
<path class="st2" d="M188.41,65.09c5.94,0.36,10.86-1.03,15.3-4.24c0.66-0.48,2.26-0.48,2.92,0c4.44,3.23,9.38,4.57,14.79,4.25
	c0.22,7.19-7.59,17.68-14.39,18.73c-2.45,0.38-5.56-0.31-7.69-1.61C193.23,78.47,190.24,72.43,188.41,65.09z"/>
<path class="st7" d="M188.45,55.99c0.97-7.77,8.05-14.28,15.67-14.54c8.98-0.31,16.13,5.46,17.86,14.53
	c-3.27,0.74-6.36,0.35-9.09-1.63c-5.25-3.81-10.37-3.75-15.6,0.08C194.76,56.3,192.51,56.57,188.45,55.99z"/>
<path class="st9" d="M181.28,254.36c0,5.64,0.01,11.29,0.01,16.93c-5.33,0.03-10.66,0.02-15.99,0.12c-1.83,0.03-2.34-0.8-2.32-2.46
	c0.05-4.07,0.08-8.14-0.01-12.21c-0.04-1.93,0.78-2.52,2.61-2.49C170.82,254.35,176.05,254.33,181.28,254.36z"/>
<path class="st9" d="M88.3,254.36c0,5.64,0.01,11.29,0.01,16.93c-5.26,0.03-10.52,0.03-15.78,0.11c-1.75,0.03-2.46-0.67-2.43-2.42
	c0.06-4.09,0.06-8.19,0-12.28c-0.03-1.74,0.68-2.47,2.42-2.45C77.78,254.33,83.04,254.33,88.3,254.36z"/>
<path class="st2" d="M230.33,161.01c0-7.01-0.29-13.82,0.09-20.59c0.32-5.77,4.24-9.23,9.51-12.02c0,4.83,0,9.27,0,13.7
	c0,2.53,0,5.06,0,7.58C239.93,157.99,239.16,158.91,230.33,161.01z"/>
<path class="st2" d="M274.96,188.33c-5.15,2.68-10.32,5.34-15.45,8.05c-3.61,1.91-7.13,3.97-10.76,5.83
	c-2.82,1.45-5.46,0.63-7.07-1.95c-1.48-2.37-0.89-4.73,1.66-6.73c2.62,2.98,3.95,3.22,7.55,1.27c7.4-4.01,14.79-8.05,22.18-12.06
	c0.91-0.49,1.84-0.95,3.23-1.67C275.79,183.82,275.38,186.08,274.96,188.33z"/>
<path class="st2" d="M56.08,193.54c2.38,1.2,3.13,3.45,2.02,6.02c-1.23,2.83-4.27,4.23-6.96,2.84c-5.94-3.07-11.75-6.37-17.65-9.52
	c-2.98-1.59-6.02-3.05-9.04-4.56c-0.41-2.25-0.83-4.51-1.35-7.35c5.51,3,10.5,5.72,15.48,8.43c3.31,1.8,6.63,3.61,9.95,5.39
	C52.12,196.74,53.46,196.5,56.08,193.54z"/>
<path class="st2" d="M78.72,228.17c1.81,0.13,3.71-0.03,5.41,0.47c2.62,0.77,4.15,2.71,4.17,5.58c0.03,3.67,0.03,7.35,0.04,11.02
	c-3.06,0-6.11,0-9.62,0C78.72,239.49,78.72,233.83,78.72,228.17z"/>
<path class="st2" d="M90.72,73.95c4.6,0,8.79,0,13.24,0c0,1.61,0.13,3.82-0.03,6c-0.28,3.75-3.22,6.48-6.67,6.44
	c-3.48-0.05-6.31-2.83-6.53-6.58C90.62,77.78,90.72,75.74,90.72,73.95z"/>
<path class="st0" d="M154.08,254.43c0,5.68,0,11.13,0,16.78c-2.83,0-5.7,0-8.68,0c0-5.54,0-11.05,0-16.78
	C148.25,254.43,151.18,254.43,154.08,254.43z"/>
<path class="st2" d="M211.55,92.47c0.48,7.84-1.57,11.73-6.48,11.49c-4.4-0.22-7.52-2.81-6.48-11.49
	C202.87,92.47,207.14,92.47,211.55,92.47z"/>
<path class="st2" d="M135.21,126.31c-4.3,1.03-7.94,1.89-11.76,2.8c0-3.9-0.08-7.78,0.06-11.64c0.04-0.97,0.78-2.72,1.24-2.73
	c1.79-0.07,4.07-0.15,5.31,0.84c1.89,1.53,3.33,3.81,4.45,6.02C135.23,123.02,135.03,124.89,135.21,126.31z"/>
<path class="st9" d="M178.26,94.05c1.42-5.87,2.84-11.74,4.33-17.86c2.38,3.29,4.92,6.04,6.49,9.27c0.96,1.97,0.45,4.66,0.59,6.89
	c-4.04,0.68-7.64,1.28-11.23,1.88L178.26,94.05z"/>
<path class="st2" d="M174.67,180.88c0-5.24-0.08-10.26,0.1-15.26c0.02-0.64,1.3-1.64,2.1-1.76c1.8-0.27,3.67-0.08,5.94-0.08
	c0,3.35,0.03,6.61-0.04,9.87c-0.01,0.48-0.4,1.09-0.8,1.41C179.66,176.96,177.3,178.79,174.67,180.88z"/>
<path class="st9" d="M227.4,76.55c1.51,5.99,2.93,11.6,4.43,17.55c-3.95-0.56-7.44-1.06-11.16-1.59c-0.3-3.34-0.9-6.64,2.21-9.5
	C224.62,81.42,225.68,79.08,227.4,76.55z"/>
<path class="st2" d="M124.65,180.79c-2.58-2.04-4.82-3.7-6.92-5.53c-0.63-0.55-1.16-1.54-1.2-2.35c-0.14-2.89-0.06-5.8-0.06-9.11
	c2.19,0,4.3-0.18,6.34,0.1c0.7,0.1,1.73,1.34,1.76,2.09C124.73,170.8,124.65,175.62,124.65,180.79z"/>
<path class="st10" d="M143.92,128.37c3.99,0,7.62,0,11.44,0c0.2,3.01,0.88,6.61-2.59,8.51c-1.59,0.87-4.29,0.99-5.91,0.23
	C143.06,135.33,143.86,131.53,143.92,128.37z"/>
<path class="st9" d="M178.43,94.23c-0.12,0.07-0.24,0.13-0.36,0.2c0.06-0.12,0.13-0.25,0.19-0.38
	C178.26,94.05,178.43,94.23,178.43,94.23z"/>
</svg>
