<svg id="Capa_3" data-name="Capa 3" xmlns="http://www.w3.org/2000/svg" viewBox="0 0 282.87 129.29"><defs><style>.cls-1{fill:#0984af;}.cls-2{fill:#fff;}</style></defs><path class="cls-1" d="M26.4,101.77a6.63,6.63,0,0,1-2.76.5A4.9,4.9,0,0,1,18.46,97a5.22,5.22,0,0,1,5.47-5.51,5.56,5.56,0,0,1,2.49.47L26.09,93A5,5,0,0,0,24,92.6c-2.46,0-4.09,1.57-4.09,4.32,0,2.57,1.48,4.21,4,4.21a5.45,5.45,0,0,0,2.2-.43Z" transform="translate(-14.85 24.1)"/><path class="cls-1" d="M34.69,98.29a3.68,3.68,0,0,1-3.75,4,3.58,3.58,0,0,1-3.6-3.88,3.66,3.66,0,0,1,3.73-4A3.56,3.56,0,0,1,34.69,98.29Zm-6,.08c0,1.65,1,2.89,2.28,2.89s2.29-1.23,2.29-2.92c0-1.28-.64-2.9-2.25-2.9S28.72,96.94,28.72,98.37Z" transform="translate(-14.85 24.1)"/><path class="cls-1" d="M36.41,96.94c0-.89,0-1.65-.06-2.35h1.2l.05,1.48h.06a2.24,2.24,0,0,1,2.08-1.65,1.51,1.51,0,0,1,.39,0v1.29a2.17,2.17,0,0,0-.47,0,1.92,1.92,0,0,0-1.83,1.75,4.1,4.1,0,0,0-.06.64v4H36.41Z" transform="translate(-14.85 24.1)"/><path class="cls-1" d="M41.56,97c0-1,0-1.74-.06-2.45h1.23l.06,1.29h0a2.94,2.94,0,0,1,2.67-1.46c1.82,0,3.19,1.54,3.19,3.82,0,2.71-1.65,4.05-3.42,4.05a2.64,2.64,0,0,1-2.32-1.19h0v4.09H41.56Zm1.35,2a3.2,3.2,0,0,0,.06.56,2.12,2.12,0,0,0,2.06,1.6c1.44,0,2.28-1.18,2.28-2.91,0-1.5-.79-2.79-2.24-2.79A2.16,2.16,0,0,0,43,97.2a2.05,2.05,0,0,0-.1.56Z" transform="translate(-14.85 24.1)"/><path class="cls-1" d="M57.21,98.29a3.68,3.68,0,0,1-3.74,4,3.58,3.58,0,0,1-3.61-3.88,3.67,3.67,0,0,1,3.73-4A3.56,3.56,0,0,1,57.21,98.29Zm-6,.08c0,1.65.95,2.89,2.29,2.89s2.29-1.23,2.29-2.92c0-1.28-.64-2.9-2.26-2.9S51.24,96.94,51.24,98.37Z" transform="translate(-14.85 24.1)"/><path class="cls-1" d="M58.94,96.94c0-.89,0-1.65-.06-2.35h1.19l0,1.48h.06a2.26,2.26,0,0,1,2.09-1.65,1.61,1.61,0,0,1,.39,0v1.29a2.17,2.17,0,0,0-.47,0,1.93,1.93,0,0,0-1.84,1.75,4.1,4.1,0,0,0-.06.64v4H58.94Z" transform="translate(-14.85 24.1)"/><path class="cls-1" d="M68.11,102.11l-.11-.94h0a2.81,2.81,0,0,1-2.3,1.12,2.15,2.15,0,0,1-2.31-2.17c0-1.82,1.62-2.81,4.53-2.79v-.16a1.55,1.55,0,0,0-1.71-1.74,3.77,3.77,0,0,0-2,.56l-.31-.9a4.6,4.6,0,0,1,2.47-.67c2.3,0,2.86,1.57,2.86,3.08v2.81a9.88,9.88,0,0,0,.13,1.8Zm-.2-3.84c-1.49,0-3.19.24-3.19,1.7a1.21,1.21,0,0,0,1.29,1.3A1.88,1.88,0,0,0,67.83,100a1.36,1.36,0,0,0,.08-.44Z" transform="translate(-14.85 24.1)"/><path class="cls-1" d="M76.8,101.83a5,5,0,0,1-2.16.44,3.58,3.58,0,0,1-3.75-3.84,3.83,3.83,0,0,1,4-4,4.66,4.66,0,0,1,1.89.39l-.31,1.06a3.11,3.11,0,0,0-1.58-.36,2.61,2.61,0,0,0-2.66,2.85,2.58,2.58,0,0,0,2.61,2.81,3.91,3.91,0,0,0,1.68-.37Z" transform="translate(-14.85 24.1)"/><path class="cls-1" d="M79.93,92.47a.85.85,0,0,1-1.7,0,.83.83,0,0,1,.86-.85A.81.81,0,0,1,79.93,92.47Zm-1.53,9.64V94.59h1.37v7.52Z" transform="translate(-14.85 24.1)"/><path class="cls-1" d="M88.85,98.29a3.68,3.68,0,0,1-3.75,4,3.58,3.58,0,0,1-3.6-3.88,3.66,3.66,0,0,1,3.73-4A3.56,3.56,0,0,1,88.85,98.29Zm-6,.08c0,1.65,1,2.89,2.29,2.89s2.28-1.23,2.28-2.92c0-1.28-.64-2.9-2.25-2.9S82.88,96.94,82.88,98.37Zm4.34-7-1.9,2.22h-1l1.37-2.22Z" transform="translate(-14.85 24.1)"/><path class="cls-1" d="M90.57,96.63c0-.78,0-1.42-.06-2h1.22l.07,1.24h0a2.79,2.79,0,0,1,2.49-1.41c1,0,2.66.62,2.66,3.2v4.49H95.61V97.78c0-1.22-.45-2.23-1.74-2.23A1.94,1.94,0,0,0,92,97a1.79,1.79,0,0,0-.1.64v4.52H90.57Z" transform="translate(-14.85 24.1)"/><path class="cls-1" d="M109,91.07v9.1c0,.67,0,1.43.06,1.94h-1.23l-.06-1.3h0a2.79,2.79,0,0,1-2.57,1.48c-1.82,0-3.22-1.54-3.22-3.83,0-2.5,1.54-4,3.38-4a2.51,2.51,0,0,1,2.27,1.15h0v-4.5Zm-1.37,6.58a2.76,2.76,0,0,0-.06-.57,2,2,0,0,0-2-1.59c-1.41,0-2.25,1.24-2.25,2.91,0,1.52.74,2.78,2.22,2.78a2.05,2.05,0,0,0,2-1.63,2.74,2.74,0,0,0,.06-.59Z" transform="translate(-14.85 24.1)"/><path class="cls-1" d="M112,98.6a2.41,2.41,0,0,0,2.58,2.61,4.88,4.88,0,0,0,2.08-.39l.24,1a6.1,6.1,0,0,1-2.51.47,3.49,3.49,0,0,1-3.7-3.79c0-2.27,1.34-4.06,3.53-4.06,2.46,0,3.11,2.16,3.11,3.54a4.34,4.34,0,0,1,0,.64Zm4-1a2,2,0,0,0-1.9-2.22,2.27,2.27,0,0,0-2.1,2.22Z" transform="translate(-14.85 24.1)"/><path class="cls-1" d="M128.85,91.07v9.1c0,.67,0,1.43.06,1.94h-1.23l-.06-1.3h0a2.79,2.79,0,0,1-2.57,1.48c-1.82,0-3.22-1.54-3.22-3.83,0-2.5,1.54-4,3.38-4a2.51,2.51,0,0,1,2.27,1.15h0v-4.5Zm-1.37,6.58a2.76,2.76,0,0,0-.06-.57,2,2,0,0,0-2-1.59c-1.41,0-2.25,1.24-2.25,2.91,0,1.52.75,2.78,2.22,2.78a2.05,2.05,0,0,0,2-1.63,2.74,2.74,0,0,0,.06-.59Z" transform="translate(-14.85 24.1)"/><path class="cls-1" d="M132.64,92.47a.85.85,0,0,1-1.69,0,.82.82,0,0,1,.85-.85A.81.81,0,0,1,132.64,92.47Zm-1.52,9.64V94.59h1.36v7.52Z" transform="translate(-14.85 24.1)"/><path class="cls-1" d="M134.57,100.71a3.52,3.52,0,0,0,1.8.55c1,0,1.46-.5,1.46-1.12s-.39-1-1.4-1.38c-1.35-.49-2-1.23-2-2.13a2.32,2.32,0,0,1,2.6-2.21,3.86,3.86,0,0,1,1.85.46l-.34,1a2.91,2.91,0,0,0-1.54-.44c-.81,0-1.26.47-1.26,1s.45.9,1.43,1.28c1.31.49,2,1.15,2,2.27,0,1.32-1,2.25-2.81,2.25a4.27,4.27,0,0,1-2.11-.51Z" transform="translate(-14.85 24.1)"/><path class="cls-1" d="M146.27,101.83a4.94,4.94,0,0,1-2.16.44,3.57,3.57,0,0,1-3.74-3.84,3.82,3.82,0,0,1,4-4,4.72,4.72,0,0,1,1.9.39L146,95.88a3.15,3.15,0,0,0-1.59-.36,2.61,2.61,0,0,0-2.66,2.85,2.58,2.58,0,0,0,2.61,2.81,3.91,3.91,0,0,0,1.68-.37Z" transform="translate(-14.85 24.1)"/><path class="cls-1" d="M152,102.11l-.11-.94h0a2.81,2.81,0,0,1-2.31,1.12,2.15,2.15,0,0,1-2.3-2.17c0-1.82,1.62-2.81,4.53-2.79v-.16a1.55,1.55,0,0,0-1.71-1.74,3.77,3.77,0,0,0-2,.56l-.31-.9a4.6,4.6,0,0,1,2.47-.67c2.3,0,2.86,1.57,2.86,3.08v2.81a9.88,9.88,0,0,0,.13,1.8Zm-.2-3.84c-1.49,0-3.19.24-3.19,1.7a1.21,1.21,0,0,0,1.29,1.3,1.88,1.88,0,0,0,1.82-1.25,1.36,1.36,0,0,0,.08-.44Z" transform="translate(-14.85 24.1)"/><path class="cls-1" d="M155.37,97c0-1,0-1.74-.06-2.45h1.22l.07,1.29h0a2.94,2.94,0,0,1,2.67-1.46c1.82,0,3.19,1.54,3.19,3.82,0,2.71-1.65,4.05-3.42,4.05a2.64,2.64,0,0,1-2.32-1.19h0v4.09h-1.35Zm1.35,2a3.2,3.2,0,0,0,.06.56,2.11,2.11,0,0,0,2.05,1.6c1.45,0,2.29-1.18,2.29-2.91,0-1.5-.79-2.79-2.24-2.79a2.18,2.18,0,0,0-2.07,1.69,2.52,2.52,0,0,0-.09.56Z" transform="translate(-14.85 24.1)"/><path class="cls-1" d="M168.38,102.11l-.11-.94h-.05a2.79,2.79,0,0,1-2.3,1.12,2.15,2.15,0,0,1-2.3-2.17c0-1.82,1.62-2.81,4.53-2.79v-.16a1.55,1.55,0,0,0-1.71-1.74,3.77,3.77,0,0,0-2,.56l-.31-.9a4.6,4.6,0,0,1,2.47-.67c2.3,0,2.86,1.57,2.86,3.08v2.81a10.93,10.93,0,0,0,.12,1.8Zm-.2-3.84c-1.49,0-3.19.24-3.19,1.7a1.21,1.21,0,0,0,1.29,1.3A1.88,1.88,0,0,0,168.1,100a1.36,1.36,0,0,0,.08-.44Z" transform="translate(-14.85 24.1)"/><path class="cls-1" d="M177.07,101.83a5,5,0,0,1-2.16.44,3.58,3.58,0,0,1-3.75-3.84,3.83,3.83,0,0,1,4-4,4.68,4.68,0,0,1,1.9.39l-.31,1.06a3.15,3.15,0,0,0-1.59-.36,2.61,2.61,0,0,0-2.66,2.85,2.58,2.58,0,0,0,2.62,2.81,4,4,0,0,0,1.68-.37Z" transform="translate(-14.85 24.1)"/><path class="cls-1" d="M180.19,92.47a.8.8,0,0,1-.87.84.81.81,0,0,1-.82-.84.83.83,0,0,1,.85-.85A.81.81,0,0,1,180.19,92.47Zm-1.52,9.64V94.59H180v7.52Z" transform="translate(-14.85 24.1)"/><path class="cls-1" d="M188.81,91.07v9.1c0,.67,0,1.43.06,1.94h-1.23l-.06-1.3h0a2.79,2.79,0,0,1-2.57,1.48c-1.82,0-3.22-1.54-3.22-3.83,0-2.5,1.54-4,3.38-4a2.51,2.51,0,0,1,2.27,1.15h0v-4.5Zm-1.37,6.58a2.76,2.76,0,0,0-.06-.57,2,2,0,0,0-2-1.59c-1.41,0-2.25,1.24-2.25,2.91,0,1.52.74,2.78,2.22,2.78a2.05,2.05,0,0,0,2-1.63,2.74,2.74,0,0,0,.06-.59Z" transform="translate(-14.85 24.1)"/><path class="cls-1" d="M195.24,102.11l-.11-.94h0a2.81,2.81,0,0,1-2.3,1.12,2.15,2.15,0,0,1-2.31-2.17c0-1.82,1.62-2.81,4.53-2.79v-.16a1.55,1.55,0,0,0-1.71-1.74,3.77,3.77,0,0,0-2,.56l-.31-.9a4.6,4.6,0,0,1,2.47-.67c2.3,0,2.86,1.57,2.86,3.08v2.81a9.88,9.88,0,0,0,.13,1.8Zm-.2-3.84c-1.49,0-3.19.24-3.19,1.7a1.21,1.21,0,0,0,1.29,1.3A1.87,1.87,0,0,0,195,100a1.36,1.36,0,0,0,.08-.44Z" transform="translate(-14.85 24.1)"/><path class="cls-1" d="M205.07,91.07v9.1c0,.67,0,1.43.06,1.94H203.9l-.06-1.3h0a2.79,2.79,0,0,1-2.57,1.48c-1.82,0-3.22-1.54-3.22-3.83,0-2.5,1.54-4,3.38-4a2.51,2.51,0,0,1,2.27,1.15h0v-4.5Zm-1.37,6.58a2.76,2.76,0,0,0-.06-.57,2,2,0,0,0-2-1.59c-1.41,0-2.25,1.24-2.25,2.91,0,1.52.74,2.78,2.22,2.78a2.05,2.05,0,0,0,2-1.63,2.74,2.74,0,0,0,.06-.59Z" transform="translate(-14.85 24.1)"/><path class="cls-1" d="M211.39,98.6a2.41,2.41,0,0,0,2.58,2.61,5,5,0,0,0,2.09-.39l.23,1a6,6,0,0,1-2.5.47,3.49,3.49,0,0,1-3.7-3.79c0-2.27,1.33-4.06,3.53-4.06,2.45,0,3.11,2.16,3.11,3.54a4.34,4.34,0,0,1,0,.64Zm4-1a1.94,1.94,0,0,0-1.89-2.22,2.26,2.26,0,0,0-2.1,2.22Z" transform="translate(-14.85 24.1)"/><path class="cls-1" d="M223.24,92.47a.85.85,0,0,1-1.7,0,.83.83,0,0,1,.86-.85A.81.81,0,0,1,223.24,92.47Zm-1.53,9.64V94.59h1.37v7.52Z" transform="translate(-14.85 24.1)"/><path class="cls-1" d="M225.35,96.63c0-.78,0-1.42-.06-2h1.21l.08,1.24h0a2.79,2.79,0,0,1,2.49-1.41c1,0,2.66.62,2.66,3.2v4.49h-1.37V97.78c0-1.22-.45-2.23-1.74-2.23a2,2,0,0,0-1.84,1.4,2.06,2.06,0,0,0-.09.64v4.52h-1.37Z" transform="translate(-14.85 24.1)"/><path class="cls-1" d="M239.34,101.83a4.94,4.94,0,0,1-2.16.44,3.57,3.57,0,0,1-3.74-3.84,3.82,3.82,0,0,1,4-4,4.72,4.72,0,0,1,1.9.39l-.31,1.06a3.15,3.15,0,0,0-1.59-.36,2.61,2.61,0,0,0-2.66,2.85,2.58,2.58,0,0,0,2.61,2.81,3.91,3.91,0,0,0,1.68-.37Z" transform="translate(-14.85 24.1)"/><path class="cls-1" d="M240.94,91.07h1.37v11h-1.37Z" transform="translate(-14.85 24.1)"/><path class="cls-1" d="M250.91,100.06c0,.78,0,1.46.06,2h-1.21l-.08-1.22h0a2.85,2.85,0,0,1-2.49,1.4c-1.18,0-2.59-.66-2.59-3.3v-4.4h1.37v4.17c0,1.43.43,2.39,1.67,2.39a1.91,1.91,0,0,0,1.93-1.94V94.59h1.37Z" transform="translate(-14.85 24.1)"/><path class="cls-1" d="M253,100.71a3.56,3.56,0,0,0,1.81.55c1,0,1.46-.5,1.46-1.12s-.39-1-1.4-1.38c-1.35-.49-2-1.23-2-2.13a2.32,2.32,0,0,1,2.59-2.21,3.87,3.87,0,0,1,1.86.46l-.35,1a2.88,2.88,0,0,0-1.54-.44c-.81,0-1.26.47-1.26,1s.45.9,1.43,1.28c1.31.49,2,1.15,2,2.27,0,1.32-1,2.25-2.82,2.25a4.3,4.3,0,0,1-2.11-.51Z" transform="translate(-14.85 24.1)"/><path class="cls-1" d="M260.86,92.47a.81.81,0,0,1-.87.84.82.82,0,0,1-.83-.84.83.83,0,0,1,.86-.85A.81.81,0,0,1,260.86,92.47Zm-1.53,9.64V94.59h1.37v7.52Z" transform="translate(-14.85 24.1)"/><path class="cls-1" d="M269.78,98.29a3.68,3.68,0,0,1-3.74,4,3.58,3.58,0,0,1-3.61-3.88,3.67,3.67,0,0,1,3.73-4A3.56,3.56,0,0,1,269.78,98.29Zm-6,.08c0,1.65.95,2.89,2.29,2.89s2.28-1.23,2.28-2.92c0-1.28-.63-2.9-2.25-2.9S263.81,96.94,263.81,98.37Zm4.34-7-1.9,2.22h-1l1.37-2.22Z" transform="translate(-14.85 24.1)"/><path class="cls-1" d="M271.51,96.63c0-.78,0-1.42-.06-2h1.21l.08,1.24h0a2.76,2.76,0,0,1,2.48-1.41c1.05,0,2.66.62,2.66,3.2v4.49h-1.37V97.78c0-1.22-.45-2.23-1.74-2.23A1.94,1.94,0,0,0,273,97a2.06,2.06,0,0,0-.09.64v4.52h-1.37Z" transform="translate(-14.85 24.1)"/><path class="cls-1" d="M102.42,75.32a5.2,5.2,0,1,0,5.19,5.2A5.2,5.2,0,0,0,102.42,75.32Zm.07,8.3a3.09,3.09,0,1,1,3.09-3.09A3.08,3.08,0,0,1,102.49,83.62Z" transform="translate(-14.85 24.1)"/><path class="cls-1" d="M102.86,30.13A9.1,9.1,0,1,0,112,39.22,9.09,9.09,0,0,0,102.86,30.13Zm0,16a6.94,6.94,0,1,1,6.94-6.94A6.95,6.95,0,0,1,102.86,46.14Z" transform="translate(-14.85 24.1)"/><path class="cls-1" d="M73.49,36.45a5.2,5.2,0,1,0,5.2,5.19A5.2,5.2,0,0,0,73.49,36.45Zm.08,8.3a3.09,3.09,0,1,1,3.08-3.09A3.09,3.09,0,0,1,73.57,44.75Z" transform="translate(-14.85 24.1)"/><path class="cls-1" d="M119.4,71a5.2,5.2,0,1,0,5.2,5.2A5.19,5.19,0,0,0,119.4,71Zm.08,8.3a3.09,3.09,0,1,1,3.08-3.08A3.08,3.08,0,0,1,119.48,79.26Z" transform="translate(-14.85 24.1)"/><path class="cls-1" d="M86.37,71a5.2,5.2,0,1,0,5.2,5.2A5.19,5.19,0,0,0,86.37,71Zm.08,8.3a3.09,3.09,0,1,1,3.08-3.08A3.08,3.08,0,0,1,86.45,79.26Z" transform="translate(-14.85 24.1)"/><path class="cls-1" d="M102.81,19A31.18,31.18,0,1,0,134,50.18,31.18,31.18,0,0,0,102.81,19Zm0,60.2a29,29,0,1,1,29-29A29,29,0,0,1,102.81,79.2Z" transform="translate(-14.85 24.1)"/><path class="cls-1" d="M102.78,51.79" transform="translate(-14.85 24.1)"/><polygon class="cls-1" points="105.21 99.42 88.85 72.34 88.02 73.18 87 72.34 70.64 99.42 72.3 100.62 88.02 74.36 103.54 100.62 105.21 99.42"/><path class="cls-1" d="M132.25,39.75l.64,2a56.73,56.73,0,0,1-30,8.5c-18.21,0-30.06-8.38-30.06-8.38l.64-2.06a54.82,54.82,0,0,0,29.42,8.42A55.86,55.86,0,0,0,132.25,39.75Z" transform="translate(-14.85 24.1)"/><polygon class="cls-1" points="85.2 72.55 87.23 73.6 61.48 86.91 60.7 85.01 85.2 72.55"/><line class="cls-1" x1="63.83" y1="83.38" x2="63.83" y2="83.38"/><polygon class="cls-1" points="91.18 72.81 89.15 73.86 114.89 87.17 115.67 85.28 91.18 72.81"/><line class="cls-1" x1="87.77" y1="99.23" x2="87.77" y2="99.23"/><polygon class="cls-1" points="88.8 74.11 86.79 72.68 86.6 104.22 88.82 104.02 88.8 74.11"/><path class="cls-1" d="M130.44,56.93a5.2,5.2,0,1,0,5.2,5.2A5.19,5.19,0,0,0,130.44,56.93Zm.08,8.3a3.09,3.09,0,1,1,3.08-3.08A3.08,3.08,0,0,1,130.52,65.23Z" transform="translate(-14.85 24.1)"/><path class="cls-1" d="M75,56.93a5.2,5.2,0,1,0,5.2,5.2A5.2,5.2,0,0,0,75,56.93Zm.08,8.3a3.09,3.09,0,1,1,3.08-3.08A3.08,3.08,0,0,1,75.11,65.23Z" transform="translate(-14.85 24.1)"/><path class="cls-1" d="M102.42,75.32a5.2,5.2,0,1,0,5.19,5.2A5.2,5.2,0,0,0,102.42,75.32Zm.07,8.3a3.09,3.09,0,1,1,3.09-3.09A3.08,3.08,0,0,1,102.49,83.62Z" transform="translate(-14.85 24.1)"/><path class="cls-1" d="M132.14,36.33a5.2,5.2,0,1,0,5.2,5.19A5.19,5.19,0,0,0,132.14,36.33Zm.08,8.29a3.08,3.08,0,1,1,3.08-3.08A3.08,3.08,0,0,1,132.22,44.62Z" transform="translate(-14.85 24.1)"/><circle class="cls-2" cx="117.37" cy="65.64" r="3.08"/><circle class="cls-2" cx="58.72" cy="65.76" r="3.08"/><circle class="cls-2" cx="60.26" cy="86.23" r="3.08"/><circle class="cls-2" cx="71.53" cy="100.26" r="3.08"/><circle class="cls-2" cx="87.65" cy="104.63" r="3.08"/><circle class="cls-2" cx="104.63" cy="100.26" r="3.08"/><circle class="cls-2" cx="115.6" cy="86.23" r="3.08"/><path class="cls-1" d="M44.42,79.91a31.07,31.07,0,0,1-11.71-2.17,28.24,28.24,0,0,1-9.42-6.1,27.68,27.68,0,0,1-6.23-9.22,29.4,29.4,0,0,1-2.21-11.51A29.4,29.4,0,0,1,17.06,39.4a27.58,27.58,0,0,1,6.23-9.22,28.42,28.42,0,0,1,9.42-6.11A31.27,31.27,0,0,1,44.42,21.9a31.67,31.67,0,0,1,11,1.89,23.72,23.72,0,0,1,8.94,5.73l-1.73,1.81A23.24,23.24,0,0,0,54.22,26a29.26,29.26,0,0,0-9.71-1.6,27.9,27.9,0,0,0-10.66,2,26.17,26.17,0,0,0-8.56,5.61,25.75,25.75,0,0,0-5.65,8.4,26.77,26.77,0,0,0-2,10.45,26.77,26.77,0,0,0,2,10.45,25.6,25.6,0,0,0,5.65,8.39,26,26,0,0,0,8.56,5.62,27.9,27.9,0,0,0,10.66,2,29.25,29.25,0,0,0,9.71-1.59,22.82,22.82,0,0,0,8.39-5.37l1.73,1.8A24.08,24.08,0,0,1,55.4,78,31.23,31.23,0,0,1,44.42,79.91Z" transform="translate(-14.85 24.1)"/><path class="cls-1" d="M141.27,79.59V22.23h22.12a32.67,32.67,0,0,1,16,3.73A27.31,27.31,0,0,1,190,36.12a28.48,28.48,0,0,1,3.81,14.79A28.48,28.48,0,0,1,190,65.7a27.38,27.38,0,0,1-10.61,10.16,32.78,32.78,0,0,1-16,3.73Zm2.79-2.54h19.17a30.69,30.69,0,0,0,14.71-3.36,24,24,0,0,0,9.67-9.26A26.64,26.64,0,0,0,191,50.91a26.64,26.64,0,0,0-3.4-13.52,24,24,0,0,0-9.67-9.26,30.69,30.69,0,0,0-14.71-3.36H144.06Z" transform="translate(-14.85 24.1)"/><path class="cls-1" d="M209,79.59V22.23h2.79V79.59Z" transform="translate(-14.85 24.1)"/><path class="cls-1" d="M232.71,79.59V22.23H235l42.12,54.08h-1.39V22.23h2.78V79.59h-2.29L234.1,25.51h1.4V79.59Z" transform="translate(-14.85 24.1)"/><text x="-14.85" y="24.1"/></svg>