<svg id="Capa_1" data-name="Capa 1" xmlns="http://www.w3.org/2000/svg" viewBox="0 0 87.5 87.5"><defs><style>.cls-1{fill:#fff;}</style></defs><path class="cls-1" d="M75.32,6.3h-50A18.77,18.77,0,0,0,6.57,25.05v50A18.77,18.77,0,0,0,25.32,93.8h50A18.77,18.77,0,0,0,94.07,75.05v-50A18.77,18.77,0,0,0,75.32,6.3Zm12.5,68.75a12.5,12.5,0,0,1-12.5,12.5h-50a12.51,12.51,0,0,1-12.5-12.5v-50a12.52,12.52,0,0,1,12.5-12.5h50a12.51,12.51,0,0,1,12.5,12.5Zm-37.5-50a25,25,0,1,0,25,25A25,25,0,0,0,50.32,25.05Zm0,43.75A18.75,18.75,0,1,1,69.07,50.05,18.77,18.77,0,0,1,50.32,68.8Zm27.22-46a3.32,3.32,0,0,1,.91,2.22,3.11,3.11,0,0,1-3.13,3.13,3.32,3.32,0,0,1-2.22-.91,3.27,3.27,0,0,1-.9-2.22,3.12,3.12,0,0,1,5.34-2.22Z" transform="translate(-6.57 -6.3)"/></svg>