<svg id="Capa_1" data-name="Capa 1" xmlns="http://www.w3.org/2000/svg" viewBox="0 0 92.31 96.11"><defs><style>.cls-1{fill:#fff;}</style></defs><path class="cls-1" d="M66.85,49.19a6.54,6.54,0,0,0-9.17.74l-1.91,2.24a.27.27,0,0,1-.27.07C53,51.39,48.27,49,45.18,42.56a.2.2,0,0,1,0-.22l2.39-2.77A6.53,6.53,0,0,0,47,30.48l-5.33-4.82a6.53,6.53,0,0,0-9.25.53l-3.21,3.63a10,10,0,0,0-2.46,5.88c-.32,4.63.29,16.45,12.81,26.27,1.06,1,10.09,8.72,20.21,8.72a18,18,0,0,0,6-1,9.92,9.92,0,0,0,4.21-2.87l3.14-3.64a6.54,6.54,0,0,0-.72-9.24ZM69,59.54l-3.14,3.64A4.37,4.37,0,0,1,64,64.44c-9.56,3.34-20.62-6.56-20.73-6.65l-.16-.14C33,49.75,32,40.76,32.35,36.09a4.35,4.35,0,0,1,1.08-2.55l3.21-3.63a1,1,0,0,1,.65-.32h.06a.92.92,0,0,1,.62.24l5.33,4.81A1,1,0,0,1,43.39,36L41,38.72A5.79,5.79,0,0,0,40.15,45c4,8.29,10.21,11.42,13.57,12.56A5.81,5.81,0,0,0,60,55.84l1.91-2.24a.94.94,0,0,1,1.32-.11l5.62,4.76a.89.89,0,0,1,.33.64,1,1,0,0,1-.23.65Z" transform="translate(-3.57 -2)"/><path class="cls-1" d="M50.49,2A45.41,45.41,0,0,0,12.12,71.68L3.57,98.11,28.79,87.29A45.41,45.41,0,1,0,50.49,2ZM78.66,75.56a39.81,39.81,0,0,1-48.27,6.22l-1.23-.73L12.67,88.13l5.59-17.3L17.5,69.7a39.82,39.82,0,1,1,61.16,5.86Z" transform="translate(-3.57 -2)"/></svg>