<svg id="Capa_1" data-name="Capa 1" xmlns="http://www.w3.org/2000/svg" viewBox="0 0 100 78.78"><defs><style>.cls-1{fill:#fff;}</style></defs><path class="cls-1" d="M81.67,13.1a231.51,231.51,0,0,0-63.32,0A19.49,19.49,0,0,0,1.65,29.44,132.61,132.61,0,0,0,0,50.32a134.36,134.36,0,0,0,1.66,21A19.67,19.67,0,0,0,18.34,87.52,229.68,229.68,0,0,0,50,89.71a229.68,229.68,0,0,0,31.66-2.19A19.45,19.45,0,0,0,98.34,71.3a134.07,134.07,0,0,0,1.66-21,134.1,134.1,0,0,0-1.66-21A19.69,19.69,0,0,0,81.66,13.11ZM92.92,70.43a14,14,0,0,1-12,11.64,226,226,0,0,1-61.8,0,14.16,14.16,0,0,1-12-11.64,127.86,127.86,0,0,1,0-40.14,14,14,0,0,1,12-11.75,225.27,225.27,0,0,1,61.81,0,14.15,14.15,0,0,1,12,11.65,127.85,127.85,0,0,1,1.6,20.12,128,128,0,0,1-1.6,20.12Z" transform="translate(0 -10.92)"/><path class="cls-1" d="M67.89,47.93,39.27,31.41a2.71,2.71,0,0,0-2.75,0,2.74,2.74,0,0,0-1.37,2.37V66.83a2.73,2.73,0,0,0,1.37,2.37,2.7,2.7,0,0,0,1.38.37,2.66,2.66,0,0,0,1.37-.37L67.89,52.68a2.73,2.73,0,0,0,0-4.75ZM40.64,62.08V38.54L61,50.31Z" transform="translate(0 -10.92)"/></svg>